<svg xmlns="http://www.w3.org/2000/svg" version="1.1" xmlns:xlink="http://www.w3.org/1999/xlink" xmlns:svgjs="http://svgjs.dev/svgjs" width="1000" height="1000" viewBox="0 0 1000 1000"><rect width="1000" height="1000" fill="#ffffff"></rect><g transform="matrix(0.7,0,0,0.7,149.57575757575756,252.54999999999998)"><svg viewBox="0 0 396 280" data-background-color="#ffffff" preserveAspectRatio="xMidYMid meet" height="707" width="1000" xmlns="http://www.w3.org/2000/svg" xmlns:xlink="http://www.w3.org/1999/xlink"><g id="tight-bounds" transform="matrix(1,0,0,1,0.2400000000000091,0)"><svg viewBox="0 0 395.52 280" height="280" width="395.52"><g><svg viewBox="0 0 395.52 280" height="280" width="395.52"><g><svg viewBox="0 0 395.52 280" height="280" width="395.52"><g><svg viewBox="0 0 395.52 280" height="280" width="395.52"><g><svg viewBox="0 0 395.52 280" height="280" width="395.52"><g transform="matrix(1,0,0,1,131.76336708925555,74.00336708925556)"><svg viewBox="0 0 131.99326582148888 131.99326582148888" height="131.99326582148888" width="131.99326582148888"><g><svg xmlns="http://www.w3.org/2000/svg" xmlns:xlink="http://www.w3.org/1999/xlink" version="1.1" x="0" y="0" viewBox="0 0 32 32" enable-background="new 0 0 32 32" xml:space="preserve" height="131.99326582148888" width="131.99326582148888" class="icon-o-0" data-fill-palette-color="accent" id="o-0"><g fill="#755bb4" data-fill-palette-color="accent"><path d="M27.166 19.493c-0.693 1.172-1.529 2.322-2.521 3.43C26.719 23.462 28 24.194 28 25.001c0 1.656-5.373 3-12 3-6.627 0-12-1.344-12-3 0-0.809 1.281-1.539 3.355-2.078-0.991-1.107-1.827-2.26-2.52-3.43C1.982 20.536 0 22.247 0 25.001 0 30.785 8.701 32 16 32c7.299 0 16-1.215 16-6.999C32 22.247 30.018 20.538 27.166 19.493zM20 10c0-2.209-1.791-4-4-4-2.209 0-4 1.791-4 4 0 2.209 1.791 4 4 4C18.209 14 20 12.209 20 10zM14 10c0-1.104 0.897-2 2-2 1.103 0 2 0.896 2 2 0 1.102-0.897 2-2 2C14.897 12 14 11.102 14 10zM13.782 23.329l2.219 1.48 2.219-1.48C24.362 19.235 26 13.024 26 9.998 26 4.487 21.514 0 16 0 10.486 0 6 4.487 6 10 6 13.024 7.64 19.235 13.782 23.329zM16 4c3.313 0 6 2.686 6 6 0 0 0.001 6-5.999 10C10.001 16 10 10 10 10 10 6.686 12.687 4 16 4z" fill="#000000" data-fill-palette-color="accent"></path></g></svg></g></svg></g><path d="M92.377 95.643L87.449 110.545 61.023 101.805 62.128 98.464 85.694 106.258 89.518 94.697ZM85.084 77.595V77.595L88.021 80.916 92.363 73.771 88.062 72.694C86.467 72.321 84.892 71.926 83.338 71.509 81.787 71.101 80.203 70.67 78.588 70.216V70.216L78.5 70.36C79.661 71.562 80.782 72.755 81.862 73.939 82.944 75.131 84.018 76.35 85.084 77.595ZM95.857 89.842L93.983 92.926 75.086 70.426 77.162 67.011 105.836 73.422 103.874 76.65 95.257 74.483 89.991 83.148ZM115.374 63.657V63.657C114.043 65.089 112.542 66.164 110.871 66.882 109.195 67.605 107.476 67.98 105.714 68.007V68.007L105.364 64.777C106.803 64.767 108.213 64.485 109.595 63.933 110.977 63.38 112.157 62.577 113.136 61.524V61.524C114.39 60.174 115.056 58.843 115.134 57.532 115.217 56.216 114.761 55.096 113.766 54.171V54.171C113.246 53.689 112.726 53.368 112.204 53.209 111.673 53.05 111.139 52.997 110.602 53.05 110.065 53.111 109.498 53.254 108.901 53.478 108.314 53.701 107.685 53.945 107.015 54.208V54.208L103.027 55.945C102.372 56.231 101.669 56.487 100.917 56.711 100.166 56.945 99.399 57.065 98.616 57.07 97.838 57.08 97.048 56.943 96.245 56.658 95.447 56.378 94.674 55.891 93.926 55.196V55.196C93.164 54.488 92.599 53.664 92.232 52.726 91.864 51.788 91.704 50.806 91.751 49.782 91.793 48.763 92.039 47.739 92.489 46.71 92.943 45.685 93.604 44.706 94.47 43.774V43.774C95.607 42.551 96.888 41.638 98.315 41.037 99.747 40.431 101.172 40.114 102.592 40.085V40.085L102.968 43.04C101.788 43.102 100.677 43.354 99.633 43.795 98.585 44.232 97.619 44.927 96.735 45.878V45.878C95.675 47.019 95.087 48.183 94.971 49.369 94.855 50.555 95.263 51.581 96.195 52.447V52.447C96.696 52.911 97.208 53.202 97.733 53.319 98.253 53.44 98.8 53.455 99.373 53.364 99.937 53.273 100.502 53.123 101.066 52.915 101.625 52.702 102.182 52.463 102.735 52.199V52.199L106.666 50.465C107.451 50.117 108.244 49.833 109.047 49.611 109.855 49.394 110.642 49.297 111.407 49.32 112.182 49.343 112.954 49.51 113.725 49.819 114.496 50.128 115.256 50.63 116.003 51.325V51.325C116.814 52.078 117.423 52.942 117.829 53.916 118.231 54.896 118.419 55.93 118.393 57.019 118.358 58.108 118.097 59.217 117.608 60.346 117.12 61.476 116.375 62.579 115.374 63.657ZM134.381 47.189L131.466 49.229 117.213 28.859 110.33 33.675 108.626 31.239 125.307 19.568 127.011 22.003 120.128 26.819ZM161.089 34.209L158.036 35.102 150.223 8.388 154.297 7.196 163.599 19.949C164.193 20.777 164.783 21.612 165.368 22.456 165.955 23.306 166.545 24.145 167.14 24.972V24.972L167.302 24.925C167.363 23.906 167.399 22.884 167.41 21.859 167.416 20.842 167.45 19.824 167.511 18.805V18.805L168.389 3.075 172.501 1.872 180.314 28.587 177.137 29.516 172.837 14.813C172.487 13.618 172.156 12.285 171.844 10.816 171.532 9.347 171.242 8.002 170.975 6.782V6.782L170.813 6.83 170.469 13.517 169.471 28.837 167.229 29.493 158.133 17.125 154.24 11.677 154.078 11.724C154.504 12.898 154.975 14.189 155.491 15.599 156.007 17.008 156.44 18.311 156.789 19.507V19.507ZM193.506 27.735L189.999 28.031 187.661 0.296 191.168 0ZM219.12 29.46L203.482 28.109 205.877 0.379 209.382 0.682 207.247 25.411 219.379 26.459ZM241.597 36.138L225.807 31.485 233.676 4.786 249.065 9.322 248.225 12.173 236.211 8.632 233.741 17.014 243.876 20.001 243.025 22.89 232.889 19.903 230.034 29.59 242.449 33.249ZM261.165 47.38L258.422 45.457 274.401 22.668 277.388 24.762 275.586 44.854 274.742 51.304 274.881 51.401C275.621 50.196 276.386 48.943 277.175 47.644 277.962 46.35 278.777 45.1 279.621 43.896V43.896L287.88 32.118 290.622 34.042 274.643 56.831 271.656 54.737 273.456 34.595 274.269 28.172 274.131 28.075C273.413 29.295 272.676 30.531 271.92 31.782 271.164 33.032 270.364 34.26 269.52 35.465V35.465ZM286.747 71.826V71.826C285.628 70.473 284.866 69.022 284.462 67.473 284.058 65.914 284.008 64.33 284.311 62.721 284.613 61.111 285.271 59.51 286.283 57.916 287.299 56.326 288.667 54.82 290.388 53.397V53.397C292.109 51.973 293.835 50.919 295.566 50.236 297.301 49.557 298.974 49.23 300.586 49.256 302.203 49.277 303.727 49.642 305.157 50.351 306.582 51.055 307.855 52.084 308.974 53.437V53.437C310.094 54.79 310.863 56.24 311.281 57.785 311.696 59.326 311.766 60.898 311.493 62.501 311.219 64.103 310.589 65.691 309.602 67.264 308.606 68.836 307.258 70.326 305.558 71.732V71.732C303.837 73.156 302.101 74.218 300.35 74.919 298.594 75.614 296.894 75.955 295.248 75.94 293.602 75.926 292.053 75.577 290.602 74.894 289.152 74.202 287.867 73.179 286.747 71.826ZM289.129 69.855V69.855C289.924 70.815 290.846 71.51 291.898 71.938 292.959 72.368 294.105 72.542 295.336 72.461 296.573 72.375 297.855 72.038 299.181 71.448 300.512 70.863 301.854 70.01 303.207 68.891V68.891C304.535 67.793 305.605 66.649 306.419 65.459 307.237 64.275 307.788 63.097 308.073 61.923 308.353 60.754 308.374 59.615 308.135 58.505 307.901 57.4 307.386 56.368 306.592 55.408V55.408C305.798 54.448 304.88 53.749 303.839 53.312 302.793 52.87 301.67 52.676 300.469 52.732 299.268 52.798 298.007 53.119 296.686 53.695 295.365 54.272 294.041 55.109 292.714 56.207V56.207C291.361 57.327 290.272 58.485 289.448 59.683 288.624 60.881 288.052 62.077 287.732 63.27 287.422 64.465 287.378 65.623 287.602 66.746 287.826 67.859 288.335 68.895 289.129 69.855ZM300.536 93.576L298.876 89.712 322.125 73.312 323.564 76.664 310.802 85.337C309.501 86.17 308.23 87.008 306.991 87.85 305.752 88.692 304.478 89.531 303.171 90.367V90.367L303.238 90.522C304.767 90.204 306.281 89.908 307.778 89.632 309.275 89.357 310.774 89.067 312.273 88.762V88.762L327.719 86.337 328.989 89.296 316.596 98.828C315.377 99.719 314.146 100.615 312.904 101.517 311.661 102.418 310.403 103.326 309.13 104.241V104.241L309.2 104.406C310.706 104.033 312.191 103.669 313.654 103.315 315.12 102.967 316.596 102.625 318.082 102.289V102.289L333.159 99.006 334.497 102.12 306.647 107.806 304.972 103.906 318.716 93.438C319.601 92.777 320.476 92.145 321.342 91.542 322.209 90.939 323.091 90.323 323.988 89.692V89.692L323.921 89.537C322.846 89.753 321.785 89.953 320.738 90.136 319.694 90.324 318.635 90.527 317.559 90.744V90.744ZM72.76 198.236L67.723 183.066 94.619 174.136 95.75 177.541 71.769 185.504 75.675 197.268ZM94.222 203.975V203.975L89.836 205.089 94.265 212.354 97.259 208.958C98.342 207.692 99.433 206.453 100.533 205.239 101.636 204.031 102.766 202.803 103.922 201.555V201.555L103.834 201.411C102.212 201.895 100.61 202.348 99.028 202.769 97.445 203.19 95.843 203.592 94.222 203.975ZM78.096 207.983L76.187 204.851 105.379 198.292 107.49 201.755 88.283 224.696 86.281 221.411 92.265 214.632 86.89 205.813ZM99.504 238.317V238.317C98.15 236.861 97.168 235.258 96.561 233.506 95.948 231.749 95.695 229.979 95.801 228.196V228.196L99.105 228.069C99.015 229.528 99.197 230.979 99.652 232.421 100.111 233.867 100.84 235.127 101.838 236.199V236.199C103.116 237.572 104.417 238.347 105.742 238.526 107.077 238.705 108.249 238.325 109.258 237.386V237.386C109.787 236.894 110.152 236.386 110.353 235.864 110.555 235.341 110.644 234.805 110.622 234.256 110.604 233.702 110.503 233.117 110.319 232.5 110.135 231.884 109.933 231.225 109.715 230.523V230.523L108.246 226.349C108.008 225.666 107.8 224.931 107.622 224.147 107.448 223.367 107.385 222.579 107.432 221.783 107.479 220.997 107.676 220.207 108.024 219.413 108.366 218.624 108.918 217.874 109.68 217.166V217.166C110.461 216.439 111.34 215.924 112.316 215.621 113.293 215.319 114.3 215.228 115.336 215.35 116.368 215.466 117.391 215.791 118.403 216.325 119.411 216.862 120.357 217.607 121.242 218.557V218.557C122.398 219.799 123.231 221.17 123.739 222.67 124.249 224.161 124.466 225.629 124.391 227.075V227.075L121.353 227.241C121.377 226.041 121.205 224.893 120.836 223.797 120.472 222.705 119.839 221.675 118.936 220.704V220.704C117.856 219.545 116.718 218.862 115.52 218.655 114.327 218.453 113.258 218.792 112.312 219.672V219.672C111.803 220.146 111.468 220.643 111.309 221.163 111.145 221.687 111.09 222.24 111.144 222.824 111.189 223.407 111.299 223.992 111.475 224.58 111.646 225.163 111.843 225.744 112.067 226.324V226.324L113.544 230.45C113.838 231.271 114.068 232.098 114.235 232.929 114.398 233.765 114.439 234.573 114.36 235.353 114.28 236.133 114.056 236.904 113.686 237.664 113.307 238.424 112.739 239.156 111.983 239.861V239.861C111.158 240.628 110.235 241.184 109.215 241.527 108.199 241.866 107.138 241.98 106.031 241.87 104.919 241.755 103.808 241.408 102.699 240.829 101.589 240.251 100.525 239.413 99.504 238.317ZM122.6 256.943L119.626 254.865 134.123 234.108 127.114 229.213 128.844 226.736 145.845 238.609 144.114 241.086 137.097 236.185ZM155.022 272.671L151.913 271.757 159.902 244.566 164.05 245.785 165.006 261.824C165.066 262.864 165.112 263.907 165.143 264.952 165.181 265.999 165.23 267.043 165.291 268.083V268.083L165.453 268.13C166.06 267.287 166.65 266.431 167.223 265.563 167.789 264.693 168.379 263.837 168.992 262.995V262.995L178.385 249.996 182.572 251.226 174.584 278.418 171.35 277.468 175.747 262.504C176.104 261.289 176.554 259.968 177.098 258.539 177.638 257.102 178.127 255.788 178.567 254.598V254.598L178.405 254.55 174.433 260.097 165.154 272.674 162.875 272.004 161.873 256.407 161.533 249.594 161.371 249.546C161.097 250.785 160.791 252.152 160.455 253.649 160.121 255.14 159.775 256.492 159.419 257.707V257.707ZM191.657 280L188.081 279.693 190.505 251.457 194.08 251.763ZM220.8 278.301L204.871 279.638 202.501 251.397 206.077 251.097 208.19 276.277 220.543 275.24ZM247.337 270.889L231.248 275.582 223.312 248.376 238.99 243.802 239.837 246.703 227.603 250.272 230.097 258.822 240.422 255.81 241.28 258.749 230.954 261.761 233.833 271.629 246.477 267.94ZM272.519 257.037L269.718 258.981 253.559 235.699 256.613 233.579 275.175 242.367 281.04 245.448 281.187 245.346C280.293 244.208 279.367 243.036 278.408 241.829 277.441 240.621 276.53 239.402 275.676 238.172V238.172L267.327 226.143 270.136 224.193 286.296 247.475 283.241 249.595 264.624 240.797 258.773 237.755 258.634 237.851C259.55 238.974 260.471 240.114 261.395 241.271 262.323 242.434 263.214 243.631 264.068 244.861V244.861ZM303.246 229.461V229.461C302.1 230.835 300.79 231.869 299.314 232.563 297.834 233.261 296.258 233.609 294.588 233.605 292.922 233.605 291.198 233.246 289.416 232.527 287.633 231.809 285.866 230.719 284.116 229.259V229.259C282.37 227.804 280.994 226.272 279.987 224.665 278.986 223.061 278.346 221.449 278.067 219.827 277.789 218.206 277.87 216.613 278.312 215.048 278.75 213.489 279.541 212.022 280.687 210.648V210.648C281.829 209.279 283.135 208.241 284.605 207.534 286.074 206.827 287.636 206.459 289.29 206.432 290.944 206.404 292.652 206.742 294.414 207.443 296.171 208.14 297.912 209.208 299.637 210.647V210.647C301.388 212.107 302.777 213.649 303.804 215.274 304.831 216.898 305.49 218.535 305.78 220.184 306.076 221.837 306.013 223.454 305.591 225.035 305.17 226.617 304.388 228.092 303.246 229.461ZM300.826 227.443V227.443C301.637 226.471 302.158 225.417 302.389 224.281 302.63 223.144 302.591 221.964 302.273 220.741 301.956 219.528 301.38 218.309 300.545 217.086 299.71 215.863 298.605 214.679 297.231 213.533V213.533C295.882 212.408 294.536 211.549 293.193 210.955 291.85 210.362 290.571 210.033 289.356 209.969 288.132 209.906 286.987 210.099 285.922 210.548 284.856 210.988 283.918 211.694 283.107 212.666V212.666C282.297 213.638 281.768 214.691 281.523 215.823 281.276 216.947 281.294 218.105 281.576 219.298 281.853 220.487 282.407 221.686 283.236 222.895 284.061 224.11 285.148 225.279 286.497 226.404V226.404C287.871 227.55 289.235 228.424 290.588 229.026 291.937 229.633 293.239 229.981 294.493 230.07 295.753 230.163 296.919 229.992 297.99 229.556 299.07 229.119 300.016 228.415 300.826 227.443ZM319.433 202.03L317.735 205.953 289.341 200.21 290.817 196.798 306.16 200.187C307.686 200.565 309.193 200.921 310.681 201.254 312.171 201.582 313.682 201.936 315.214 202.317V202.317L315.281 202.162C313.978 201.252 312.702 200.338 311.452 199.422 310.202 198.506 308.941 197.599 307.668 196.702V196.702L295.072 186.963 296.375 183.952 312.093 186.475C313.605 186.753 315.13 187.034 316.668 187.317 318.204 187.606 319.755 187.901 321.321 188.203V188.203L321.388 188.048C320.061 187.193 318.757 186.343 317.476 185.5 316.191 184.663 314.907 183.811 313.621 182.944V182.944L300.646 174.081 302.019 170.906 325.697 187.551 323.98 191.52 306.618 188.666C305.512 188.469 304.435 188.263 303.387 188.047 302.333 187.83 301.26 187.607 300.167 187.38V187.38L300.095 187.544C301.01 188.185 301.901 188.827 302.771 189.471 303.635 190.112 304.522 190.755 305.434 191.403V191.403ZM61.538 143.5C61.538 137.521 66.385 132.674 72.364 132.674 78.343 132.674 83.19 137.521 83.19 143.5 83.19 149.48 78.343 154.326 72.364 154.326 66.385 154.326 61.538 149.48 61.538 143.5ZM312.044 143.5C312.044 137.521 316.891 132.674 322.87 132.674 328.849 132.674 333.696 137.521 333.696 143.5 333.696 149.48 328.849 154.326 322.87 154.326 316.891 154.326 312.044 149.48 312.044 143.5Z" fill="#000000" data-fill-palette-color="primary"></path></svg></g></svg></g></svg></g><g></g></svg></g><defs></defs></svg><rect width="395.52" height="280" fill="none" stroke="none" visibility="hidden"></rect></g></svg></g></svg>